<?xml version="1.0" encoding="UTF-8"?>
<svg id="Layer_1" xmlns="http://www.w3.org/2000/svg" xmlns:xlink="http://www.w3.org/1999/xlink" version="1.1" viewBox="0 0 30 30">
  <!-- Generator: Adobe Illustrator 29.1.0, SVG Export Plug-In . SVG Version: 2.1.0 Build 142)  -->
  <defs>
    <style>
      .st0 {
        fill: none;
      }

      .st1 {
        clip-path: url(#clippath-1);
      }

      .st2 {
        clip-path: url(#clippath-2);
      }
    </style>
    <clipPath id="clippath-1">
      <rect class="st0" width="30" height="30"/>
    </clipPath>
    <clipPath id="clippath-2">
      <rect class="st0" width="30" height="30"/>
    </clipPath>
  </defs>
  <g class="st1">
    <path d="M10.37,7.96c-.27,0-.48-.22-.48-.48s.21-.48.48-.48h9.35c.26,0,.48.22.48.48s-.22.48-.48.48h-9.35Z"/>
  </g>
  <path d="M16.27,19.97h-2.49v-2.49h2.49v2.49ZM10.7,23.14h8.7v-5.77h2.59l-6.94-5.22-6.94,5.22h2.59v5.77Z"/>
  <g class="st2">
    <path d="M6.77,9.94c-.26,0-.48.22-.48.48s.22.48.48.48h6.94c.27,0,.48-.22.48-.48s-.21-.48-.48-.48h-6.94Z"/>
    <path d="M16.28,9.94c-.26,0-.48.22-.48.48s.22.48.48.48h6.94c.26,0,.48-.22.48-.48s-.22-.48-.48-.48h-6.94Z"/>
    <path d="M19.43,12.89c-.26,0-.48.22-.48.48s.22.48.48.48h3.79c.26,0,.48-.22.48-.48s-.22-.48-.48-.48h-3.79Z"/>
    <path d="M6.77,12.89c-.26,0-.48.22-.48.48s.22.48.48.48h3.79c.26,0,.48-.22.48-.48s-.21-.48-.48-.48h-3.79Z"/>
  </g>
</svg>