<?xml version="1.0" encoding="UTF-8"?>
<svg id="Layer_1" xmlns="http://www.w3.org/2000/svg" xmlns:xlink="http://www.w3.org/1999/xlink" version="1.1" viewBox="0 0 30 30">
  <!-- Generator: Adobe Illustrator 29.1.0, SVG Export Plug-In . SVG Version: 2.1.0 Build 142)  -->
  <defs>
    <style>
      .st0, .st1 {
        fill: none;
      }

      .st2 {
        clip-path: url(#clippath-1);
      }

      .st3 {
        clip-path: url(#clippath-2);
      }

      .st1 {
        stroke: #231f20;
      }
    </style>
    <clipPath id="clippath-1">
      <rect class="st0" width="30" height="30"/>
    </clipPath>
    <clipPath id="clippath-2">
      <rect class="st0" width="30" height="30"/>
    </clipPath>
  </defs>
  <g class="st2">
    <path d="M4.75,28"/>
  </g>
  <path class="st1" d="M4.75,28"/>
  <polygon points="8.3 8.66 8.3 22.44 22.08 22.44 8.3 8.66"/>
  <g class="st3">
    <path d="M13.21,9.31l-.85.49c-.16.09-.37.04-.46-.12-.09-.16-.04-.37.12-.47l.85-.47-.85-.5c-.16-.09-.22-.3-.12-.47.09-.16.3-.22.46-.12l.85.49v-.99c0-.19.15-.34.34-.34s.34.15.34.34v.98l.83-.48c.16-.09.37-.04.47.12.09.16.04.37-.12.47l-.83.5.83.47c.16.1.22.3.12.47-.09.16-.3.22-.47.12l-.83-.48v.95c0,.19-.15.34-.34.34s-.34-.15-.34-.34v-.97Z"/>
    <path d="M16.94,13.01l-.85.49c-.16.09-.37.04-.47-.12-.09-.16-.04-.37.12-.47l.85-.47-.85-.5c-.16-.09-.22-.3-.12-.47.09-.16.3-.22.47-.12l.85.49v-.99c0-.19.15-.34.34-.34s.34.15.34.34v.98l.83-.48c.16-.1.37-.04.47.12.09.16.04.37-.12.47l-.83.5.83.47c.16.1.22.3.12.47-.09.16-.3.22-.47.12l-.83-.48v.96c0,.19-.15.34-.34.34s-.34-.15-.34-.34v-.97Z"/>
    <path d="M20.66,16.81l-.85.49c-.16.1-.37.04-.47-.12-.09-.16-.04-.37.12-.47l.85-.47-.85-.5c-.16-.1-.22-.3-.12-.47.09-.16.3-.22.47-.12l.85.49v-.99c0-.19.15-.34.34-.34s.34.15.34.34v.98l.83-.48c.16-.1.37-.04.47.12.09.16.04.37-.12.47l-.83.5.83.47c.16.1.22.3.12.47-.09.16-.3.22-.47.12l-.83-.48v.95c0,.19-.15.34-.34.34s-.34-.15-.34-.34v-.97Z"/>
  </g>
</svg>