<?xml version="1.0" encoding="UTF-8"?>
<svg id="Layer_1" xmlns="http://www.w3.org/2000/svg" xmlns:xlink="http://www.w3.org/1999/xlink" version="1.1" viewBox="0 0 30 30">
  <!-- Generator: Adobe Illustrator 29.1.0, SVG Export Plug-In . SVG Version: 2.1.0 Build 142)  -->
  <defs>
    <style>
      .st0 {
        fill: none;
      }

      .st1 {
        clip-path: url(#clippath-1);
      }
    </style>
    <clipPath id="clippath-1">
      <rect class="st0" width="30" height="30"/>
    </clipPath>
  </defs>
  <g class="st1">
    <path d="M23.1,19.42c-1.26,0-1.91.7-2.44,1.26-.47.5-.84.9-1.61.9s-1.14-.4-1.61-.9c-.53-.56-1.18-1.26-2.44-1.26s-1.91.7-2.44,1.26c-.47.5-.84.9-1.61.9s-1.14-.4-1.61-.9c-.53-.56-1.18-1.26-2.44-1.26-.32,0-.57.26-.57.57s.25.57.57.57h.01c.76,0,1.13.4,1.6.9.53.56,1.18,1.26,2.44,1.26s1.92-.7,2.44-1.26c.47-.5.84-.9,1.61-.9s1.14.4,1.61.9c.53.56,1.18,1.26,2.44,1.26s1.91-.7,2.44-1.26c.47-.5.84-.89,1.59-.9h.01c.32,0,.57-.26.57-.57s-.26-.57-.57-.57h0Z"/>
    <path d="M23.1,16.81c-1.26,0-1.91.7-2.44,1.26-.47.5-.84.9-1.61.9s-1.14-.4-1.61-.9c-.53-.56-1.18-1.26-2.44-1.26s-1.91.7-2.44,1.26c-.47.5-.84.9-1.61.9s-1.14-.4-1.61-.9c-.53-.56-1.18-1.26-2.44-1.26-.32,0-.57.26-.57.57s.26.57.57.57h0c.76,0,1.13.4,1.6.9.53.56,1.18,1.26,2.44,1.26s1.91-.7,2.44-1.26c.47-.5.84-.9,1.61-.9s1.14.4,1.61.9c.53.56,1.18,1.26,2.44,1.26s1.92-.7,2.44-1.26c.47-.5.84-.9,1.6-.9h0c.21,0,.39-.11.5-.29.1-.18.1-.39,0-.57-.1-.18-.29-.29-.49-.29h0Z"/>
    <path d="M16.16,15.07h-2.48v-2.48h2.48v2.48ZM21.86,12.48l-6.91-5.2-6.92,5.2h2.58v7.05h.02c.82,0,1.21-.42,1.71-.96.56-.6,1.26-1.34,2.6-1.34s2.04.74,2.6,1.34c.5.54.9.96,1.71.96h.02v-7.05h2.58Z"/>
  </g>
</svg>