<?xml version="1.0" encoding="UTF-8"?>
<svg id="Layer_1" xmlns="http://www.w3.org/2000/svg" xmlns:xlink="http://www.w3.org/1999/xlink" version="1.1" viewBox="0 0 30 30">
  <!-- Generator: Adobe Illustrator 29.1.0, SVG Export Plug-In . SVG Version: 2.1.0 Build 142)  -->
  <defs>
    <style>
      .st0 {
        fill: none;
      }

      .st1 {
        clip-path: url(#clippath-1);
      }
    </style>
    <clipPath id="clippath-1">
      <rect class="st0" width="30" height="30"/>
    </clipPath>
  </defs>
  <g class="st1">
    <path d="M23.1,18.92c-1.26,0-1.92.7-2.44,1.26-.47.5-.84.9-1.61.9s-1.14-.4-1.61-.9c-.53-.56-1.18-1.26-2.44-1.26s-1.91.7-2.44,1.26c-.47.5-.84.9-1.61.9s-1.14-.4-1.61-.9c-.53-.56-1.18-1.26-2.44-1.26-.32,0-.57.26-.57.57s.26.57.57.57h.01c.76,0,1.13.4,1.59.9.53.56,1.18,1.26,2.44,1.26s1.91-.7,2.44-1.26c.47-.5.84-.9,1.61-.9s1.14.4,1.61.9c.53.56,1.18,1.26,2.44,1.26s1.91-.7,2.44-1.26c.47-.5.84-.89,1.59-.9h.01c.32,0,.57-.26.57-.57s-.26-.57-.57-.57h0Z"/>
    <path d="M23.1,16.31c-1.26,0-1.92.7-2.44,1.26-.47.5-.84.9-1.61.9s-1.14-.4-1.61-.9c-.53-.56-1.18-1.26-2.44-1.26s-1.91.7-2.44,1.26c-.47.5-.84.9-1.61.9s-1.14-.4-1.61-.9c-.53-.56-1.18-1.26-2.44-1.26-.32,0-.57.26-.57.57s.26.57.57.57h0c.76,0,1.13.4,1.6.9.53.56,1.18,1.26,2.44,1.26s1.91-.7,2.44-1.26c.47-.5.84-.9,1.61-.9s1.14.4,1.61.9c.53.56,1.18,1.26,2.44,1.26s1.91-.7,2.44-1.26c.47-.5.84-.9,1.6-.9h0c.21,0,.39-.11.5-.29.1-.18.1-.39,0-.57-.1-.18-.29-.29-.49-.29h0Z"/>
  </g>
  <polygon points="17.45 10.37 14.9 7.5 12.35 10.37 13.63 10.37 13.63 14.91 16.17 14.91 16.17 10.37 17.45 10.37"/>
</svg>