<?xml version="1.0" encoding="UTF-8"?>
<svg id="Layer_1" xmlns="http://www.w3.org/2000/svg" xmlns:xlink="http://www.w3.org/1999/xlink" version="1.1" viewBox="0 0 30 30">
  <!-- Generator: Adobe Illustrator 29.1.0, SVG Export Plug-In . SVG Version: 2.1.0 Build 142)  -->
  <defs>
    <style>
      .st0 {
        fill: none;
      }

      .st1 {
        clip-path: url(#clippath-1);
      }
    </style>
    <clipPath id="clippath-1">
      <rect class="st0" width="30" height="30"/>
    </clipPath>
  </defs>
  <g class="st1">
    <path d="M10.4,9.79c-.26,0-.47-.21-.47-.47s.21-.47.47-.47h9.14c.26,0,.47.21.47.47s-.21.47-.47.47h-9.14Z"/>
    <path d="M10.4,21.15c-.26,0-.47-.21-.47-.47s.21-.47.47-.47h9.14c.26,0,.47.21.47.47s-.21.47-.47.47h-9.14Z"/>
    <path d="M10.4,15.47c-.26,0-.47-.21-.47-.47s.21-.47.47-.47h9.14c.26,0,.47.21.47.47s-.21.47-.47.47h-9.14Z"/>
    <path d="M14.85,18.34c-.26,0-.47-.21-.47-.47s.21-.47.47-.47h7.62c.26,0,.47.21.47.47s-.21.47-.47.47h-7.62Z"/>
    <path d="M7.53,18.34c-.26,0-.47-.21-.47-.47s.21-.47.47-.47h4.69c.26,0,.47.21.47.47s-.21.47-.47.47h-4.69Z"/>
    <path d="M7.53,12.66c-.26,0-.47-.21-.47-.47s.21-.47.47-.47h7.62c.26,0,.47.21.47.47s-.21.47-.47.47h-7.62Z"/>
    <path d="M17.78,12.66c-.26,0-.47-.21-.47-.47s.21-.47.47-.47h4.69c.26,0,.47.21.47.47s-.21.47-.47.47h-4.69Z"/>
  </g>
</svg>