<?xml version="1.0" encoding="UTF-8"?>
<svg id="Layer_1" xmlns="http://www.w3.org/2000/svg" xmlns:xlink="http://www.w3.org/1999/xlink" version="1.1" viewBox="0 0 30 30">
  <!-- Generator: Adobe Illustrator 29.1.0, SVG Export Plug-In . SVG Version: 2.1.0 Build 142)  -->
  <defs>
    <style>
      .st0 {
        fill: none;
      }

      .st1 {
        clip-path: url(#clippath-1);
      }
    </style>
    <clipPath id="clippath-1">
      <rect class="st0" width="30" height="30"/>
    </clipPath>
  </defs>
  <g class="st1">
    <path d="M13.4,8.38c-.01.88.7,1.61,1.58,1.62.88.01,1.61-.7,1.62-1.58,0-.66-.88-1.99-1.32-2.61-.1-.14-.29-.17-.43-.07-.03.02-.05.04-.07.07-.46.61-1.38,1.92-1.38,2.58"/>
    <path d="M15.79,10.41c-.73.5-.92,1.49-.42,2.22.5.73,1.49.92,2.22.42.55-.37,1.12-1.86,1.38-2.58.06-.16-.03-.33-.19-.39-.03-.01-.06-.02-.09-.02-.76-.02-2.36-.03-2.91.35"/>
    <path d="M14.21,10.41c.73.5.92,1.49.42,2.22-.5.73-1.49.92-2.22.42-.55-.37-1.12-1.86-1.38-2.58-.06-.16.03-.33.19-.39.03-.01.06-.02.09-.02.76-.02,2.36-.03,2.9.35"/>
    <path d="M15.79,17.84c-.73.5-.92,1.49-.42,2.22.5.73,1.49.92,2.22.42.55-.37,1.12-1.86,1.38-2.58.06-.16-.03-.33-.19-.39-.03-.01-.06-.02-.09-.02-.76-.03-2.36-.03-2.91.35"/>
    <path d="M14.21,17.84c.73.5.92,1.49.42,2.22-.5.73-1.49.92-2.22.42-.55-.37-1.12-1.86-1.38-2.58-.06-.16.03-.33.19-.39.03-.01.06-.02.09-.02.76-.03,2.36-.03,2.9.35"/>
    <path d="M15.79,14.13c-.73.5-.92,1.49-.42,2.22.5.73,1.49.92,2.22.42.55-.37,1.12-1.86,1.38-2.58.06-.16-.03-.33-.19-.39-.03-.01-.06-.02-.09-.02-.76-.02-2.36-.03-2.91.35"/>
    <path d="M14.21,14.13c.73.5.92,1.49.42,2.22-.5.73-1.49.92-2.22.42-.55-.37-1.12-1.86-1.38-2.58-.06-.16.03-.33.19-.39.03-.01.06-.02.09-.02.76-.02,2.36-.03,2.9.35"/>
    <path d="M15,20.72c-.25,0-.45.2-.45.45v2.69c0,.25.2.45.45.45s.45-.2.45-.45v-2.69c0-.25-.2-.45-.45-.45"/>
  </g>
</svg>