<?xml version="1.0" encoding="UTF-8"?>
<svg id="Layer_1" xmlns="http://www.w3.org/2000/svg" xmlns:xlink="http://www.w3.org/1999/xlink" version="1.1" viewBox="0 0 30 30">
  <!-- Generator: Adobe Illustrator 29.1.0, SVG Export Plug-In . SVG Version: 2.1.0 Build 142)  -->
  <defs>
    <style>
      .st0 {
        fill: none;
      }

      .st1 {
        clip-path: url(#clippath-1);
      }
    </style>
    <clipPath id="clippath-1">
      <rect class="st0" width="30" height="30"/>
    </clipPath>
  </defs>
  <g class="st1">
    <path d="M15.39,19.54v-5.94c0-.32-.26-.58-.58-.58s-.58.26-.58.58v5.94c-.5.22-.85.72-.85,1.3,0,.79.64,1.42,1.42,1.42s1.42-.64,1.42-1.42c0-.58-.35-1.08-.84-1.3"/>
    <path d="M18.76,10.6c.31,0,.56-.25.56-.56s-.25-.56-.56-.56h-1.36v-.7h1.36c.31,0,.56-.25.56-.56s-.25-.56-.56-.56h-1.37c-.12-1.31-1.23-2.34-2.57-2.34-1.42,0-2.58,1.16-2.58,2.58v10.59c-.58.64-.91,1.47-.91,2.34,0,1.92,1.56,3.48,3.48,3.48s3.48-1.56,3.48-3.48c0-.86-.33-1.7-.91-2.34v-6.08h1.36c.31,0,.56-.25.56-.56s-.25-.55-.56-.55h-1.36v-.7h1.36ZM14.82,22.99c-1.19,0-2.15-.97-2.15-2.15,0-.6.25-1.16.69-1.58.13-.12.21-.29.21-.49V7.91c0-.69.56-1.25,1.24-1.25s1.24.56,1.24,1.25v10.86c0,.19.08.37.22.49.45.41.69.97.69,1.58,0,1.19-.97,2.15-2.15,2.15h0Z"/>
  </g>
</svg>