<?xml version="1.0" encoding="UTF-8"?>
<svg id="Layer_1" xmlns="http://www.w3.org/2000/svg" xmlns:xlink="http://www.w3.org/1999/xlink" version="1.1" viewBox="0 0 30 30">
  <!-- Generator: Adobe Illustrator 29.1.0, SVG Export Plug-In . SVG Version: 2.1.0 Build 142)  -->
  <defs>
    <style>
      .st0, .st1 {
        fill: none;
      }

      .st2 {
        clip-path: url(#clippath-1);
      }

      .st3 {
        clip-path: url(#clippath-2);
      }

      .st1 {
        stroke: #231f20;
      }
    </style>
    <clipPath id="clippath-1">
      <rect class="st0" width="30" height="30"/>
    </clipPath>
    <clipPath id="clippath-2">
      <rect class="st0" width="30" height="30"/>
    </clipPath>
  </defs>
  <g class="st2">
    <path d="M5.75,26"/>
  </g>
  <path class="st1" d="M5.75,26"/>
  <polygon points="8.2 8.81 8.2 22.59 21.98 22.59 8.2 8.81"/>
  <g class="st3">
    <path d="M18.23,13.18c0,.71-.57,1.28-1.28,1.28s-1.28-.57-1.28-1.28c0-.2.04-.38.12-.55l.72-1.82c.24-.62.64-.62.88,0l.71,1.81c.08.17.13.36.13.56"/>
    <path d="M14.36,9.33c0,.71-.57,1.28-1.28,1.28s-1.28-.57-1.28-1.28c0-.2.04-.38.12-.55l.72-1.82c.24-.62.64-.62.88,0l.71,1.81c.08.17.13.36.13.56"/>
    <path d="M22.11,17.03c0,.71-.57,1.28-1.28,1.28s-1.28-.57-1.28-1.28c0-.2.04-.38.12-.55l.72-1.82c.24-.62.64-.62.88,0l.71,1.81c.08.17.13.36.13.56"/>
  </g>
</svg>