<?xml version="1.0" encoding="UTF-8"?>
<svg id="Layer_1" xmlns="http://www.w3.org/2000/svg" xmlns:xlink="http://www.w3.org/1999/xlink" version="1.1" viewBox="0 0 30 30">
  <!-- Generator: Adobe Illustrator 29.1.0, SVG Export Plug-In . SVG Version: 2.1.0 Build 142)  -->
  <defs>
    <style>
      .st0 {
        fill: none;
      }

      .st1 {
        clip-path: url(#clippath-1);
      }
    </style>
    <clipPath id="clippath-1">
      <rect class="st0" width="30" height="30"/>
    </clipPath>
  </defs>
  <g class="st1">
    <path d="M15.21,8s-1.58,4.29-2.57,5.28c-.75.75-1.96.75-2.7,0s-.75-1.96,0-2.7c.99-.99,5.28-2.57,5.28-2.57M21.98,14.8s-1.58,4.29-2.57,5.28c-.75.75-1.96.75-2.71,0-.75-.75-.75-1.96,0-2.7.99-.99,5.28-2.57,5.28-2.57M16.32,13.63s-2.07,5.62-3.37,6.92c-.98.98-2.56.98-3.54,0-.98-.98-.98-2.57,0-3.55,1.3-1.3,6.92-3.37,6.92-3.37"/>
  </g>
</svg>