<?xml version="1.0" encoding="UTF-8"?>
<svg id="Layer_1" xmlns="http://www.w3.org/2000/svg" xmlns:xlink="http://www.w3.org/1999/xlink" version="1.1" viewBox="0 0 30 30">
  <!-- Generator: Adobe Illustrator 29.1.0, SVG Export Plug-In . SVG Version: 2.1.0 Build 142)  -->
  <defs>
    <style>
      .st0 {
        fill: none;
      }

      .st1 {
        clip-path: url(#clippath-1);
      }
    </style>
    <clipPath id="clippath-1">
      <rect class="st0" width="30" height="30"/>
    </clipPath>
  </defs>
  <g class="st1">
    <path d="M16.15,13.15c0-1.27,1.03-2.29,2.29-2.29.54,0,1.08.21,1.47.52,0,0,0,0,0,0,0,0,0,0,0,0-.48-2.23-2.44-3.88-4.81-3.88-.88,0-1.7.23-2.41.63-4.96,2.33-4.14,11.31-4.12,12.68h14.59c-2.25-1.68-7-5.01-7-7.66"/>
    <path d="M19.71,13.9c.84-.48.29-2.06.28-2.11-.39-.23-.87-.38-1.34-.38-.81,0-1.53.38-2,.98,1.11.84,2.56,1.8,3.05,1.51"/>
  </g>
</svg>