<?xml version="1.0" encoding="UTF-8"?>
<svg id="Layer_1" xmlns="http://www.w3.org/2000/svg" xmlns:xlink="http://www.w3.org/1999/xlink" version="1.1" viewBox="0 0 30 30">
  <!-- Generator: Adobe Illustrator 29.1.0, SVG Export Plug-In . SVG Version: 2.1.0 Build 142)  -->
  <defs>
    <style>
      .st0 {
        fill: none;
      }

      .st1 {
        clip-path: url(#clippath-1);
      }
    </style>
    <clipPath id="clippath-1">
      <rect class="st0" width="30" height="30"/>
    </clipPath>
  </defs>
  <g class="st1">
    <path d="M14.57,19.3v4.12l-1.16-1.07c-.1-.1-.25-.13-.39-.1-.16.02-.3.13-.35.29,0,.03-.01.06-.01.09,0,.14.07.27.18.35l1.73,1.6c.24.22.61.22.85,0l1.75-1.61c.17-.16.18-.43.02-.6-.08-.09-.2-.14-.32-.14-.11,0-.21.05-.29.12l-1.15,1.06v-4.12c0-.23-.19-.43-.43-.43s-.43.19-.43.43Z"/>
    <path d="M15.05,17.49c-2.08,0-3.76-1.68-3.76-3.76s1.68-3.76,3.76-3.76,3.76,1.68,3.76,3.76-1.68,3.76-3.76,3.76"/>
    <path d="M15.43,8.05c0,.24-.19.43-.43.43s-.43-.19-.43-.43v-2.37c0-.24.19-.43.43-.43s.43.19.43.43v2.37Z"/>
    <path d="M11.3,9.4c.17.17.17.44,0,.61-.17.17-.44.17-.61,0l-1.67-1.67c-.17-.17-.17-.44,0-.61.17-.17.44-.17.61,0l1.67,1.67Z"/>
    <path d="M20.94,19.03c.17.17.17.44,0,.61s-.44.17-.61,0l-1.67-1.67c-.17-.17-.17-.44,0-.61.17-.17.44-.17.61,0l1.67,1.67Z"/>
    <path d="M19.3,10.01c-.17.17-.44.17-.61,0-.17-.17-.17-.44,0-.61l1.67-1.67c.17-.17.44-.17.61,0,.17.17.17.44,0,.61l-1.67,1.67Z"/>
    <path d="M9.66,19.64c-.17.17-.44.17-.61,0s-.17-.44,0-.61l1.67-1.67c.17-.17.44-.17.61,0,.17.17.17.44,0,.61l-1.67,1.67Z"/>
    <path d="M20.67,14.1c-.24,0-.43-.19-.43-.43s.19-.43.43-.43h2.37c.24,0,.43.19.43.43s-.19.43-.43.43h-2.37Z"/>
    <path d="M7.03,14.1c-.24,0-.43-.19-.43-.43s.19-.43.43-.43h2.37c.24,0,.43.19.43.43s-.19.43-.43.43h-2.37Z"/>
  </g>
</svg>