<svg id="Layer_1" xmlns="http://www.w3.org/2000/svg" xmlns:xlink="http://www.w3.org/1999/xlink" version="1.1" viewBox="0 0 30 30">
  <!-- Generator: Adobe Illustrator 29.1.0, SVG Export Plug-In . SVG Version: 2.1.0 Build 142)  -->
  <defs>
    <style>
      .st0 {
        fill: none;
      }

      .st1 {
        clip-path: url(#clippath-1);
      }
    </style>
    <clipPath id="clippath-1">
      <rect class="st0" width="30" height="30"/>
    </clipPath>
  </defs>
  <g class="st1">
    <path d="M18.13,8.81c1.03.64,1.52,1.9,1.22,3.1-.29,1.16-1.27,2-2.41,2.06h-.16s-7.98,0-7.98,0c-.48,0-.88-.39-.88-.88,0-.44.33-.82.77-.87h.1s7.98,0,7.98,0c.39,0,.75-.29.86-.74.12-.47-.07-.95-.44-1.18-.3-.19-.69-.16-.96.08l-.08.08c-.34.35-.89.36-1.24.02-.34-.33-.36-.86-.05-1.22.85-.92,2.19-1.11,3.24-.46h0ZM19.43,16.02c1.22,0,2.27.85,2.57,2.07.3,1.2-.19,2.47-1.22,3.1-1.06.65-2.4.46-3.25-.46-.33-.36-.31-.91.05-1.24.32-.3.82-.31,1.16-.03l.08.08c.28.31.7.37,1.04.16.37-.23.55-.71.44-1.18-.1-.41-.41-.69-.77-.74h-.1s-10.64,0-10.64,0c-.48,0-.88-.39-.88-.87,0-.45.33-.83.78-.88h.1s10.63,0,10.63,0h0Z"/>
  </g>
</svg>